<svg width="811" height="185" viewBox="0 0 811 185" fill="none" xmlns="http://www.w3.org/2000/svg">
<g opacity="0.08">
<path d="M232.084 151.501C224.313 151.501 217.429 149.643 211.432 145.926C205.519 142.125 200.873 136.846 197.495 130.088C194.116 123.246 192.427 115.307 192.427 106.269C192.427 97.146 194.201 89.1216 197.748 82.1953C201.38 75.1844 206.491 69.6941 213.079 65.7241C219.752 61.7541 227.734 59.7691 237.026 59.7691C247.5 59.7691 256.158 62.2609 262.999 67.2445C269.926 72.2281 274.402 79.1544 276.43 88.0235H257.298C256.031 84.138 253.666 81.0972 250.203 78.901C246.739 76.6204 242.305 75.4801 236.899 75.4801C231.155 75.4801 226.256 76.7471 222.202 79.2811C218.147 81.8152 215.064 85.3628 212.952 89.924C210.925 94.4853 209.912 99.9334 209.912 106.269C209.912 112.688 210.925 118.136 212.952 122.613C215.064 127.09 218.063 130.511 221.948 132.876C225.918 135.156 230.564 136.297 235.885 136.297C243.656 136.297 249.527 134.227 253.497 130.088C257.551 125.865 259.959 120.417 260.719 113.744H238.926V100.947H277.95V149.98H262.366L260.972 135.03H260.465C258.523 138.493 256.158 141.491 253.37 144.026C250.583 146.475 247.373 148.333 243.741 149.6C240.193 150.867 236.308 151.501 232.084 151.501ZM288.705 149.98V87.1366H303.276L304.796 100.947H305.303C307.161 96.4703 309.188 93.176 311.384 91.0643C313.581 88.8682 316.072 87.4322 318.86 86.7565C321.732 85.9963 324.941 85.6162 328.489 85.6162V103.734H323.801C320.929 103.734 318.353 104.072 316.072 104.748C313.876 105.339 312.018 106.353 310.498 107.789C308.977 109.14 307.795 110.956 306.95 113.237C306.19 115.518 305.81 118.263 305.81 121.473V149.98H288.705ZM363.657 151.501C357.575 151.501 352.085 150.107 347.185 147.32C342.286 144.532 338.401 140.647 335.529 135.663C332.742 130.68 331.348 124.978 331.348 118.559C331.348 112.055 332.784 106.353 335.656 101.454C338.528 96.4703 342.413 92.5848 347.312 89.7973C352.211 87.0099 357.659 85.6162 363.657 85.6162C369.738 85.6162 375.229 87.0099 380.128 89.7973C385.027 92.5848 388.87 96.4703 391.658 101.454C394.53 106.353 395.965 112.055 395.965 118.559C395.965 125.063 394.53 130.806 391.658 135.79C388.786 140.689 384.9 144.532 380.001 147.32C375.186 150.107 369.738 151.501 363.657 151.501ZM363.53 137.057C366.317 137.057 368.809 136.381 371.005 135.03C373.286 133.678 375.102 131.651 376.453 128.948C377.805 126.161 378.481 122.697 378.481 118.559C378.481 114.42 377.805 110.999 376.453 108.296C375.102 105.508 373.286 103.439 371.005 102.087C368.809 100.736 366.402 100.06 363.783 100.06C361.08 100.06 358.589 100.736 356.308 102.087C354.027 103.439 352.211 105.508 350.86 108.296C349.508 110.999 348.833 114.42 348.833 118.559C348.833 122.697 349.508 126.161 350.86 128.948C352.211 131.651 353.985 133.678 356.181 135.03C358.462 136.381 360.911 137.057 363.53 137.057ZM413.953 149.98L397.609 87.1366H414.46L424.976 137.944H425.483L437.139 87.1366H456.651L468.435 137.817H468.941L479.331 87.1366H496.309L479.711 149.98H459.312L447.149 99.68H446.642L434.352 149.98H413.953ZM529.189 176.841C523.192 176.841 517.913 176.123 513.351 174.687C508.875 173.251 505.369 171.097 502.835 168.225C500.386 165.438 499.161 162.059 499.161 158.089C499.161 155.133 499.921 152.43 501.441 149.98C502.962 147.446 505.2 145.166 508.157 143.139C511.113 141.027 514.745 139.211 519.053 137.69L525.261 146.179C521.545 147.446 518.842 148.967 517.152 150.741C515.463 152.514 514.618 154.542 514.618 156.822C514.618 158.512 515.21 159.948 516.392 161.13C517.659 162.313 519.391 163.2 521.587 163.791C523.783 164.467 526.317 164.805 529.189 164.805C532.061 164.805 534.468 164.467 536.411 163.791C538.354 163.115 539.832 162.144 540.845 160.877C541.859 159.694 542.366 158.301 542.366 156.696C542.366 154.415 541.563 152.641 539.959 151.374C538.354 150.192 535.228 149.431 530.583 149.094C526.275 148.756 522.474 148.291 519.18 147.7C515.885 147.024 512.971 146.264 510.437 145.419C507.988 144.49 505.876 143.476 504.102 142.378C502.328 141.28 500.892 140.182 499.794 139.084V136.17L513.351 122.233L523.361 126.034L509.677 141.238L514.238 133.636C515.083 133.974 515.97 134.312 516.899 134.65C517.828 134.987 518.968 135.325 520.32 135.663C521.756 136.001 523.53 136.339 525.641 136.677C527.837 136.93 530.583 137.226 533.877 137.564C539.452 137.986 544.013 138.957 547.561 140.478C551.108 141.998 553.727 144.068 555.416 146.686C557.105 149.305 557.95 152.514 557.95 156.316C557.95 159.61 556.894 162.82 554.783 165.945C552.755 169.155 549.63 171.773 545.407 173.8C541.183 175.828 535.777 176.841 529.189 176.841ZM529.316 131.355C523.994 131.355 519.391 130.342 515.505 128.315C511.704 126.287 508.748 123.542 506.636 120.079C504.609 116.616 503.595 112.773 503.595 108.549C503.595 104.326 504.609 100.482 506.636 97.0193C508.748 93.5561 511.704 90.8109 515.505 88.7837C519.391 86.672 523.994 85.6162 529.316 85.6162C534.637 85.6162 539.198 86.672 542.999 88.7837C546.885 90.8109 549.841 93.5561 551.868 97.0193C553.896 100.482 554.909 104.326 554.909 108.549C554.909 112.773 553.896 116.616 551.868 120.079C549.841 123.542 546.885 126.287 542.999 128.315C539.198 130.342 534.637 131.355 529.316 131.355ZM529.189 118.939C532.568 118.939 535.271 118.094 537.298 116.405C539.41 114.631 540.465 112.012 540.465 108.549C540.465 105.086 539.41 102.51 537.298 100.82C535.271 99.0465 532.61 98.1596 529.316 98.1596C525.937 98.1596 523.192 99.0465 521.08 100.82C519.053 102.51 518.039 105.086 518.039 108.549C518.039 112.012 519.053 114.631 521.08 116.405C523.192 118.094 525.895 118.939 529.189 118.939ZM539.578 98.6664L536.791 87.1366H563.145V96.3858L539.578 98.6664ZM592.081 151.501C587.098 151.501 582.959 150.656 579.665 148.967C576.455 147.278 574.09 144.997 572.569 142.125C571.049 139.253 570.289 136.086 570.289 132.622C570.289 128.737 571.26 125.316 573.203 122.36C575.23 119.403 578.271 117.123 582.325 115.518C586.38 113.828 591.49 112.984 597.656 112.984H613.494C613.494 109.858 613.029 107.282 612.1 105.255C611.255 103.228 609.904 101.707 608.046 100.694C606.272 99.68 603.991 99.1732 601.204 99.1732C597.91 99.1732 595.08 99.9334 592.715 101.454C590.434 102.89 588.998 105.17 588.407 108.296H571.809C572.316 103.65 573.836 99.6378 576.37 96.2591C578.989 92.8804 582.41 90.2619 586.633 88.4036C590.941 86.5453 595.798 85.6162 601.204 85.6162C607.285 85.6162 612.522 86.6298 616.915 88.657C621.307 90.5998 624.686 93.5139 627.051 97.3994C629.416 101.2 630.599 105.846 630.599 111.337V149.98H616.408L614.634 140.224H614.127C612.776 142.083 611.298 143.73 609.693 145.166C608.172 146.602 606.483 147.784 604.625 148.713C602.766 149.643 600.781 150.318 598.67 150.741C596.558 151.247 594.362 151.501 592.081 151.501ZM597.656 138.324C600.021 138.324 602.048 137.944 603.738 137.184C605.512 136.339 607.032 135.241 608.299 133.889C609.566 132.538 610.537 130.975 611.213 129.201C611.973 127.343 612.48 125.443 612.734 123.5H599.557C596.938 123.5 594.784 123.838 593.095 124.514C591.49 125.105 590.307 125.992 589.547 127.174C588.787 128.272 588.407 129.582 588.407 131.102C588.407 132.622 588.787 133.932 589.547 135.03C590.307 136.128 591.406 136.972 592.842 137.564C594.277 138.071 595.882 138.324 597.656 138.324ZM640.103 149.98V87.1366H655.054L656.448 97.6528H656.954C658.897 93.6828 661.6 90.6842 665.063 88.657C668.526 86.6298 672.539 85.6162 677.1 85.6162C680.225 85.6162 683.097 86.0385 685.716 86.8832C688.419 87.7279 690.784 89.0794 692.811 90.9376C694.838 92.7115 696.527 95.0766 697.879 98.0329H698.386C700.751 94.1474 703.665 91.1066 707.128 88.9104C710.676 86.7143 715.153 85.6162 720.558 85.6162C725.373 85.6162 729.554 86.7565 733.102 89.0371C736.65 91.2333 739.352 94.4853 741.211 98.7931C743.154 103.101 744.125 108.422 744.125 114.757V149.98H727.147V116.278C727.147 111.041 726.133 107.029 724.106 104.241C722.079 101.454 718.911 100.06 714.603 100.06C711.732 100.06 709.282 100.694 707.255 101.961C705.228 103.143 703.623 104.959 702.44 107.409C701.258 109.774 700.666 112.73 700.666 116.278V149.98H683.688V116.278C683.688 111.041 682.675 107.029 680.648 104.241C678.62 101.454 675.411 100.06 671.018 100.06C668.484 100.06 666.161 100.778 664.05 102.214C661.938 103.566 660.249 105.551 658.982 108.169C657.799 110.703 657.208 113.828 657.208 117.545V149.98H640.103ZM755.716 149.98V87.1366H772.821V149.98H755.716ZM764.332 79.1544C761.206 79.1544 758.63 78.2675 756.603 76.4937C754.66 74.6354 753.689 72.3125 753.689 69.5251C753.689 66.7377 754.66 64.4148 756.603 62.5565C758.63 60.6983 761.206 59.7691 764.332 59.7691C767.457 59.7691 769.991 60.6983 771.934 62.5565C773.877 64.4148 774.848 66.7377 774.848 69.5251C774.848 72.2281 773.877 74.5087 771.934 76.367C769.991 78.2253 767.457 79.1544 764.332 79.1544Z" fill="white"/>
<path d="M106.68 0.0458655C106.804 -0.080351 107.021 0.0774215 106.928 0.235192C103.335 5.59939 97.8844 13.6772 91.2877 23.4275C79.1781 41.3186 73.2008 51.3213 64.7458 65.0473C64.2503 65.8678 53.3796 83.0332 47.8668 97.2956C47.8668 97.2956 43.469 107.709 42.7877 117.017C42.7257 117.711 42.7257 118.09 42.7257 118.216C42.6018 121.308 42.8806 128.597 47.9288 134.182C48.6721 135.034 51.162 137.924 55.4979 139.754C59.1524 141.301 67.3688 144.49 81.2436 140.262C98.0297 135.15 111.14 122.634 113.865 120.299C113.989 120.204 113.896 119.983 113.741 120.015C111.388 120.614 102.282 122.886 85.9607 126.957C85.8059 126.988 85.7129 126.799 85.8059 126.704C95.5616 116.765 105.317 106.825 115.104 96.8539C124.829 86.9459 134.554 77.0379 144.278 67.1299C144.402 67.0037 144.588 67.1299 144.526 67.2877C138.394 88.6814 132.231 110.075 126.099 131.437C126.099 131.469 126.099 131.469 126.068 131.5C125.417 132.321 108.322 153.367 89.3675 168.892C89.3365 168.923 89.3365 168.923 89.3055 168.955C83.6689 173.467 71.3426 183.312 53.9371 184.069C30.7401 185.048 15.1309 169.144 14.3256 168.292C4.26019 157.722 -0.942877 142.513 0.141095 127.84C1.31798 111.779 9.98975 98.3369 20.7366 87.0406C28.8818 78.4578 27.7669 79.7516 58.3969 49.0494C58.4898 48.9547 58.5517 48.8916 58.6446 48.797C64.2503 43.1488 68.3384 38.9836 69.1746 38.1317C72.0549 35.134 81.7177 25.3207 106.68 0.0458655Z" fill="white"/>
</g>
</svg>
