<?xml version="1.0" encoding="UTF-8"?>
<svg id="Layer_1" data-name="Layer 1" xmlns="http://www.w3.org/2000/svg" viewBox="0 0 230 210">
  <defs>
    <style>
      .cls-1 {
        fill: #111;
        stroke-width: 0px;
      }
    </style>
  </defs>
  <path class="cls-1" d="m227.07,51.36C227.07,5.7,104.6,2.68,63.37,2.68h-.62c-.27,0-.49.22-.49.49,0,.25.18.46.43.49.5.06,1.32.15,1.82.21,24.21,3.1,87.77,20.48,103.75,63.08-43.08,8.79-114.47,8.84-142.07,8.84h0c-12.85,0-23.26,10.42-23.26,23.27s10.41,23.26,23.26,23.27h0s0,0,0,0c0,0,0,0,0,0,59.1,0,108.6-7.8,143.69-20.31-9.14,31.04-49.7,58.77-143.7,58.77-12.85,0-23.26,10.42-23.26,23.27s10.41,23.26,23.26,23.27c107.45,0,170.14-49.97,170.14-110.62-.06-2.11-.23-4.19-.48-6.25,20.1-11.27,31.21-24.74,31.21-39.1Zm-41.03,10.82c-17.26-28.71-54.22-48.55-95.92-56.02-.22-.04-.17-.36.05-.34,73.78,7.5,112.59,26.72,112.59,41.81,0,6.06-6.36,10.82-16.72,14.56Z"/>
</svg>